<?xml version="1.0" encoding="UTF-8"?>
<svg width="24px" height="16px" viewBox="0 0 24 16" version="1.1" xmlns="http://www.w3.org/2000/svg" xmlns:xlink="http://www.w3.org/1999/xlink">
    <!-- Generator: Sketch 64 (93537) - https://sketch.com -->
    <title>arrow</title>
    <desc>Created with Sketch.</desc>
    <g id="Page-1" stroke="none" stroke-width="1" fill="none" fill-rule="evenodd">
        <g id="Discussion-Card-Audio-with-Image" transform="translate(-22.000000, -69.000000)" fill="#FFFFFF" fill-rule="nonzero">
            <g id="top-bar" transform="translate(22.000000, 67.000000)">
                <g id="arrow" transform="translate(0.000000, 2.222222)">
                    <path d="M8.40138821,0.298215314 C8.81180086,0.701208981 8.81180086,1.37017847 8.40943552,1.78123201 L3.52472034,6.68969488 L22.1381408,6.68969488 C22.7094996,6.68969488 23.1762434,7.15716753 23.1762434,7.73747841 C23.1762434,8.31778929 22.7094996,8.78526195 22.1381408,8.78526195 L3.52472034,8.78526195 L8.41748283,13.6937248 C8.81984816,14.1047784 8.81180086,14.765688 8.40943552,15.1767415 C7.99902288,15.5797352 7.34719103,15.5797352 6.93677839,15.1686816 L0.305797655,8.47898676 C0.217277281,8.38226828 0.144851521,8.27748993 0.0885203739,8.14853195 C0.0321892269,8.01957398 0.00804730672,7.88255613 0.00804730672,7.74553828 C0.00804730672,7.47150259 0.112662294,7.21358664 0.305797655,7.01208981 L6.93677839,0.322394934 C7.33109642,-0.0967184801 7.99097557,-0.104778353 8.40138821,0.298215314 L8.40138821,0.298215314 Z" id="Shape"></path>
                </g>
            </g>
        </g>
    </g>
</svg>