<?xml version="1.0" encoding="UTF-8"?>
<svg width="8px" height="11px" viewBox="0 0 8 11" version="1.1" xmlns="http://www.w3.org/2000/svg" xmlns:xlink="http://www.w3.org/1999/xlink">
    <!-- Generator: Sketch 64 (93537) - https://sketch.com -->
    <title>arrow-right</title>
    <desc>Created with Sketch.</desc>
    <g id="Page-1" stroke="none" stroke-width="1" fill="none" fill-rule="evenodd">
        <g id="Card-Home-Audio-" transform="translate(-106.000000, -609.000000)" fill="#F9AC21">
            <g id="Author/Badges/Buttons" transform="translate(50.000000, 561.000000)">
                <path d="M63.8793057,53.166 L59.6444162,48.166 C59.5540719,48.06 59.4279663,48 59.294332,48 L56.4710724,48 C56.2856784,48 56.1172239,48.116 56.0409959,48.296 C55.9657089,48.477 55.9967648,48.688 56.1209882,48.834 L60.0726106,53.5 L56.1209882,58.165 C55.9967648,58.312 55.9647679,58.523 56.0409959,58.703 C56.1172239,58.884 56.2856784,59 56.4710724,59 L59.294332,59 C59.4279663,59 59.5540719,58.939 59.6444162,58.835 L63.8793057,53.835 C64.0402314,53.645 64.0402314,53.355 63.8793057,53.166 Z" id="arrow-right"></path>
            </g>
        </g>
    </g>
</svg>