<?xml version="1.0" encoding="UTF-8"?>
<svg width="357px" height="218px" viewBox="0 0 357 218" version="1.1" xmlns="http://www.w3.org/2000/svg" xmlns:xlink="http://www.w3.org/1999/xlink">
    <!-- Generator: Sketch 64 (93537) - https://sketch.com -->
    <title>img-card-audio</title>
    <desc>Created with Sketch.</desc>
    <g id="Page-1" stroke="none" stroke-width="1" fill="none" fill-rule="evenodd">
        <g id="Card-Home-Audio-" transform="translate(-30.000000, -169.000000)" fill="#D9D9D9">
            <g id="img-card-audio" transform="translate(-33.000000, 169.000000)">
                <g id="seek-bar">
                    <g>
                        <path d="M66.3095238,38.7555556 C67.7743934,38.7555556 68.9619048,39.943067 68.9619048,41.4079365 L68.9619048,181.436508 C68.9619048,182.901377 67.7743934,184.088889 66.3095238,184.088889 C64.8446543,184.088889 63.6571429,182.901377 63.6571429,181.436508 L63.6571429,41.4079365 C63.6571429,39.943067 64.8446543,38.7555556 66.3095238,38.7555556 Z" id="Rectangle-4-Copy-6"></path>
                        <path d="M76.9190476,14.5333333 C78.3839172,14.5333333 79.5714286,15.7208447 79.5714286,17.1857143 L79.5714286,205.65873 C79.5714286,207.1236 78.3839172,208.311111 76.9190476,208.311111 C75.4541781,208.311111 74.2666667,207.1236 74.2666667,205.65873 L74.2666667,17.1857143 C74.2666667,15.7208447 75.4541781,14.5333333 76.9190476,14.5333333 Z" id="Rectangle-4-Copy-7"></path>
                        <path d="M87.5285714,58.1333333 C88.993441,58.1333333 90.1809524,59.3208447 90.1809524,60.7857143 L90.1809524,162.05873 C90.1809524,163.5236 88.993441,164.711111 87.5285714,164.711111 C86.0637019,164.711111 84.8761905,163.5236 84.8761905,162.05873 L84.8761905,60.7857143 C84.8761905,59.3208447 86.0637019,58.1333333 87.5285714,58.1333333 Z" id="Rectangle-4-Copy-8"></path>
                        <path d="M98.1380952,24.2222222 C99.6029648,24.2222222 100.790476,25.4097336 100.790476,26.8746032 L100.790476,195.969841 C100.790476,197.434711 99.6029648,198.622222 98.1380952,198.622222 C96.6732257,198.622222 95.4857143,197.434711 95.4857143,195.969841 L95.4857143,26.8746032 C95.4857143,25.4097336 96.6732257,24.2222222 98.1380952,24.2222222 Z" id="Rectangle-4-Copy-9"></path>
                        <path d="M108.747619,62.9777778 C110.212489,62.9777778 111.4,64.1652892 111.4,65.6301587 L111.4,162.05873 C111.4,163.5236 110.212489,164.711111 108.747619,164.711111 C107.282749,164.711111 106.095238,163.5236 106.095238,162.05873 L106.095238,65.6301587 C106.095238,64.1652892 107.282749,62.9777778 108.747619,62.9777778 Z" id="Rectangle-4-Copy-10"></path>
                        <path d="M119.357143,14.5333333 C120.822012,14.5333333 122.009524,15.7208447 122.009524,17.1857143 L122.009524,205.65873 C122.009524,207.1236 120.822012,208.311111 119.357143,208.311111 C117.892273,208.311111 116.704762,207.1236 116.704762,205.65873 L116.704762,17.1857143 C116.704762,15.7208447 117.892273,14.5333333 119.357143,14.5333333 Z" id="Rectangle-4-Copy-11"></path>
                        <path d="M129.966667,58.1333333 C131.431536,58.1333333 132.619048,59.3208447 132.619048,60.7857143 L132.619048,162.05873 C132.619048,163.5236 131.431536,164.711111 129.966667,164.711111 C128.501797,164.711111 127.314286,163.5236 127.314286,162.05873 L127.314286,60.7857143 C127.314286,59.3208447 128.501797,58.1333333 129.966667,58.1333333 Z" id="Rectangle-4-Copy-12"></path>
                        <path d="M140.57619,38.7555556 C142.04106,38.7555556 143.228571,39.943067 143.228571,41.4079365 L143.228571,186.280952 C143.228571,187.745822 142.04106,188.933333 140.57619,188.933333 C139.111321,188.933333 137.92381,187.745822 137.92381,186.280952 L137.92381,41.4079365 C137.92381,39.943067 139.111321,38.7555556 140.57619,38.7555556 Z" id="Rectangle-4-Copy-13"></path>
                        <path d="M151.185714,38.7555556 C152.650584,38.7555556 153.838095,39.943067 153.838095,41.4079365 L153.838095,181.436508 C153.838095,182.901377 152.650584,184.088889 151.185714,184.088889 C149.720845,184.088889 148.533333,182.901377 148.533333,181.436508 L148.533333,41.4079365 C148.533333,39.943067 149.720845,38.7555556 151.185714,38.7555556 Z" id="Rectangle-4-Copy-14"></path>
                        <path d="M161.795238,58.1333333 C163.260108,58.1333333 164.447619,59.3208447 164.447619,60.7857143 L164.447619,162.05873 C164.447619,163.5236 163.260108,164.711111 161.795238,164.711111 C160.330369,164.711111 159.142857,163.5236 159.142857,162.05873 L159.142857,60.7857143 C159.142857,59.3208447 160.330369,58.1333333 161.795238,58.1333333 Z" id="Rectangle-4-Copy-15"></path>
                        <path d="M172.404762,0 C173.869631,-2.69092171e-16 175.057143,1.1875114 175.057143,2.65238095 L175.057143,215.347619 C175.057143,216.812489 173.869631,218 172.404762,218 C170.939892,218 169.752381,216.812489 169.752381,215.347619 L169.752381,2.65238095 C169.752381,1.1875114 170.939892,2.69092171e-16 172.404762,0 Z" id="Rectangle-4-Copy-16"></path>
                        <rect id="Rectangle-4-Copy-33" x="180.361905" y="67.8222222" width="5.3047619" height="87.2" rx="2.65238095"></rect>
                        <path d="M193.62381,24.2222222 C195.088679,24.2222222 196.27619,25.4097336 196.27619,26.8746032 L196.27619,195.969841 C196.27619,197.434711 195.088679,198.622222 193.62381,198.622222 C192.15894,198.622222 190.971429,197.434711 190.971429,195.969841 L190.971429,26.8746032 C190.971429,25.4097336 192.15894,24.2222222 193.62381,24.2222222 Z" id="Rectangle-4-Copy-32"></path>
                        <path d="M204.233333,29.0666667 C205.698203,29.0666667 206.885714,30.2541781 206.885714,31.7190476 L206.885714,181.436508 C206.885714,182.901377 205.698203,184.088889 204.233333,184.088889 C202.768464,184.088889 201.580952,182.901377 201.580952,181.436508 L201.580952,31.7190476 C201.580952,30.2541781 202.768464,29.0666667 204.233333,29.0666667 Z" id="Rectangle-4-Copy-31"></path>
                        <path d="M214.842857,62.9777778 C216.307727,62.9777778 217.495238,64.1652892 217.495238,65.6301587 L217.495238,162.05873 C217.495238,163.5236 216.307727,164.711111 214.842857,164.711111 C213.377988,164.711111 212.190476,163.5236 212.190476,162.05873 L212.190476,65.6301587 C212.190476,64.1652892 213.377988,62.9777778 214.842857,62.9777778 Z" id="Rectangle-4-Copy-30"></path>
                        <path d="M225.452381,62.9777778 C226.917251,62.9777778 228.104762,64.1652892 228.104762,65.6301587 L228.104762,162.05873 C228.104762,163.5236 226.917251,164.711111 225.452381,164.711111 C223.987511,164.711111 222.8,163.5236 222.8,162.05873 L222.8,65.6301587 C222.8,64.1652892 223.987511,62.9777778 225.452381,62.9777778 Z" id="Rectangle-4-Copy-29"></path>
                        <path d="M236.061905,24.2222222 C237.526774,24.2222222 238.714286,25.4097336 238.714286,26.8746032 L238.714286,191.125397 C238.714286,192.590266 237.526774,193.777778 236.061905,193.777778 C234.597035,193.777778 233.409524,192.590266 233.409524,191.125397 L233.409524,26.8746032 C233.409524,25.4097336 234.597035,24.2222222 236.061905,24.2222222 Z" id="Rectangle-4-Copy-28"></path>
                        <rect id="Rectangle-4-Copy-27" x="244.019048" y="72.6666667" width="5.3047619" height="72.6666667" rx="2.65238095"></rect>
                        <path d="M257.280952,29.0666667 C258.745822,29.0666667 259.933333,30.2541781 259.933333,31.7190476 L259.933333,186.280952 C259.933333,187.745822 258.745822,188.933333 257.280952,188.933333 C255.816083,188.933333 254.628571,187.745822 254.628571,186.280952 L254.628571,31.7190476 C254.628571,30.2541781 255.816083,29.0666667 257.280952,29.0666667 Z" id="Rectangle-4-Copy-26"></path>
                        <path d="M267.890476,62.9777778 C269.355346,62.9777778 270.542857,64.1652892 270.542857,65.6301587 L270.542857,162.05873 C270.542857,163.5236 269.355346,164.711111 267.890476,164.711111 C266.425607,164.711111 265.238095,163.5236 265.238095,162.05873 L265.238095,65.6301587 C265.238095,64.1652892 266.425607,62.9777778 267.890476,62.9777778 Z" id="Rectangle-4-Copy-25"></path>
                        <path d="M278.5,0 C279.96487,-2.69092171e-16 281.152381,1.1875114 281.152381,2.65238095 L281.152381,215.347619 C281.152381,216.812489 279.96487,218 278.5,218 C277.03513,218 275.847619,216.812489 275.847619,215.347619 L275.847619,2.65238095 C275.847619,1.1875114 277.03513,2.69092171e-16 278.5,0 Z" id="Rectangle-4-Copy-24"></path>
                        <path d="M289.109524,62.9777778 C290.574393,62.9777778 291.761905,64.1652892 291.761905,65.6301587 L291.761905,162.05873 C291.761905,163.5236 290.574393,164.711111 289.109524,164.711111 C287.644654,164.711111 286.457143,163.5236 286.457143,162.05873 L286.457143,65.6301587 C286.457143,64.1652892 287.644654,62.9777778 289.109524,62.9777778 Z" id="Rectangle-4-Copy-23"></path>
                        <path d="M299.719048,62.9777778 C301.183917,62.9777778 302.371429,64.1652892 302.371429,65.6301587 L302.371429,162.05873 C302.371429,163.5236 301.183917,164.711111 299.719048,164.711111 C298.254178,164.711111 297.066667,163.5236 297.066667,162.05873 L297.066667,65.6301587 C297.066667,64.1652892 298.254178,62.9777778 299.719048,62.9777778 Z" id="Rectangle-4-Copy-22"></path>
                        <rect id="Rectangle-4-Copy-21" x="307.67619" y="72.6666667" width="5.3047619" height="72.6666667" rx="2.65238095"></rect>
                        <path d="M320.938095,24.2222222 C322.402965,24.2222222 323.590476,25.4097336 323.590476,26.8746032 L323.590476,191.125397 C323.590476,192.590266 322.402965,193.777778 320.938095,193.777778 C319.473226,193.777778 318.285714,192.590266 318.285714,191.125397 L318.285714,26.8746032 C318.285714,25.4097336 319.473226,24.2222222 320.938095,24.2222222 Z" id="Rectangle-4-Copy-20"></path>
                        <path d="M331.547619,43.6 C333.012489,43.6 334.2,44.7875114 334.2,46.252381 L334.2,171.747619 C334.2,173.212489 333.012489,174.4 331.547619,174.4 C330.082749,174.4 328.895238,173.212489 328.895238,171.747619 L328.895238,46.252381 C328.895238,44.7875114 330.082749,43.6 331.547619,43.6 Z" id="Rectangle-4-Copy-19"></path>
                        <path d="M342.157143,19.3777778 C343.622012,19.3777778 344.809524,20.5652892 344.809524,22.0301587 L344.809524,205.65873 C344.809524,207.1236 343.622012,208.311111 342.157143,208.311111 C340.692273,208.311111 339.504762,207.1236 339.504762,205.65873 L339.504762,22.0301587 C339.504762,20.5652892 340.692273,19.3777778 342.157143,19.3777778 Z" id="Rectangle-4-Copy-18"></path>
                        <path d="M352.766667,58.1333333 C354.231536,58.1333333 355.419048,59.3208447 355.419048,60.7857143 L355.419048,162.05873 C355.419048,163.5236 354.231536,164.711111 352.766667,164.711111 C351.301797,164.711111 350.114286,163.5236 350.114286,162.05873 L350.114286,60.7857143 C350.114286,59.3208447 351.301797,58.1333333 352.766667,58.1333333 Z" id="Rectangle-4-Copy-17"></path>
                        <path d="M363.37619,29.0666667 C364.84106,29.0666667 366.028571,30.2541781 366.028571,31.7190476 L366.028571,186.280952 C366.028571,187.745822 364.84106,188.933333 363.37619,188.933333 C361.911321,188.933333 360.72381,187.745822 360.72381,186.280952 L360.72381,31.7190476 C360.72381,30.2541781 361.911321,29.0666667 363.37619,29.0666667 Z" id="Rectangle-4-Copy-50"></path>
                        <path d="M373.985714,43.6 C375.450584,43.6 376.638095,44.7875114 376.638095,46.252381 L376.638095,171.747619 C376.638095,173.212489 375.450584,174.4 373.985714,174.4 C372.520845,174.4 371.333333,173.212489 371.333333,171.747619 L371.333333,46.252381 C371.333333,44.7875114 372.520845,43.6 373.985714,43.6 Z" id="Rectangle-4-Copy-49"></path>
                        <path d="M384.595238,38.7555556 C386.060108,38.7555556 387.247619,39.943067 387.247619,41.4079365 L387.247619,181.436508 C387.247619,182.901377 386.060108,184.088889 384.595238,184.088889 C383.130369,184.088889 381.942857,182.901377 381.942857,181.436508 L381.942857,41.4079365 C381.942857,39.943067 383.130369,38.7555556 384.595238,38.7555556 Z" id="Rectangle-4-Copy-48"></path>
                        <path d="M395.204762,58.1333333 C396.669631,58.1333333 397.857143,59.3208447 397.857143,60.7857143 L397.857143,162.05873 C397.857143,163.5236 396.669631,164.711111 395.204762,164.711111 C393.739892,164.711111 392.552381,163.5236 392.552381,162.05873 L392.552381,60.7857143 C392.552381,59.3208447 393.739892,58.1333333 395.204762,58.1333333 Z" id="Rectangle-4-Copy-47"></path>
                        <path d="M405.814286,38.7555556 C407.279155,38.7555556 408.466667,39.943067 408.466667,41.4079365 L408.466667,186.280952 C408.466667,187.745822 407.279155,188.933333 405.814286,188.933333 C404.349416,188.933333 403.161905,187.745822 403.161905,186.280952 L403.161905,41.4079365 C403.161905,39.943067 404.349416,38.7555556 405.814286,38.7555556 Z" id="Rectangle-4-Copy-46"></path>
                        <rect id="Rectangle-4-Copy-45" x="413.771429" y="72.6666667" width="5.3047619" height="72.6666667" rx="2.65238095"></rect>
                    </g>
                </g>
            </g>
        </g>
    </g>
</svg>